<svg width="18" height="14" viewBox="0 0 18 14" fill="none" xmlns="http://www.w3.org/2000/svg">
<rect width="18" height="14" fill="#E5E5E5"/>
<g clip-path="url(#clip0_0_1)">
<rect width="1440" height="850" transform="translate(-25 -374)" fill="#F5F6F8"/>
<g filter="url(#filter0_d_0_1)">
<rect x="-25" y="-374" width="256" height="850" fill="white"/>
</g>
<g clip-path="url(#clip1_0_1)">
<path d="M1.49996 1.03325H16.5C16.5717 1.03325 16.6333 1.09485 16.6333 1.16659V12.8333C16.6333 12.905 16.5717 12.9666 16.5 12.9666H1.49996C1.42823 12.9666 1.36663 12.905 1.36663 12.8333V1.16659C1.36663 1.09485 1.42823 1.03325 1.49996 1.03325Z" stroke="#C2CFE0" stroke-width="1.4"/>
<rect x="5.5" y="0.333252" width="1.16667" height="13.3333" fill="#C2CFE0"/>
<rect x="11.3334" y="0.333252" width="1.16667" height="13.3333" fill="#C2CFE0"/>
</g>
</g>
<defs>
<filter id="filter0_d_0_1" x="-37" y="-392" width="292" height="886" filterUnits="userSpaceOnUse" color-interpolation-filters="sRGB">
<feFlood flood-opacity="0" result="BackgroundImageFix"/>
<feColorMatrix in="SourceAlpha" type="matrix" values="0 0 0 0 0 0 0 0 0 0 0 0 0 0 0 0 0 0 127 0" result="hardAlpha"/>
<feOffset dx="6"/>
<feGaussianBlur stdDeviation="9"/>
<feColorMatrix type="matrix" values="0 0 0 0 0 0 0 0 0 0 0 0 0 0 0 0 0 0 0.06 0"/>
<feBlend mode="normal" in2="BackgroundImageFix" result="effect1_dropShadow_0_1"/>
<feBlend mode="normal" in="SourceGraphic" in2="effect1_dropShadow_0_1" result="shape"/>
</filter>
<clipPath id="clip0_0_1">
<rect width="1440" height="850" fill="white" transform="translate(-25 -374)"/>
</clipPath>
<clipPath id="clip1_0_1">
<rect width="20" height="20" fill="white" transform="translate(-1 -3)"/>
</clipPath>
</defs>
</svg>
