<svg width="18" height="14" viewBox="0 0 18 14" fill="none" xmlns="http://www.w3.org/2000/svg">
<rect width="18" height="14" fill="#E5E5E5"/>
<g clip-path="url(#clip0_0_1)">
<rect width="1440" height="850" transform="translate(-25 -254)" fill="#F5F6F8"/>
<g filter="url(#filter0_d_0_1)">
<rect x="-25" y="-254" width="256" height="850" fill="white"/>
</g>
<g clip-path="url(#clip1_0_1)">
<path d="M1.37496 2.0005V1.99992C1.37496 1.46528 1.80778 1.03325 2.33329 1.03325H15.6666C16.1967 1.03325 16.6333 1.46985 16.6333 1.99992V11.9999C16.6333 12.53 16.1967 12.9666 15.6666 12.9666H2.33329C1.80331 12.9666 1.36677 12.5301 1.36663 12.0002C1.36663 12.0001 1.36663 12 1.36663 11.9999L1.37496 2.0005Z" stroke="#C2CFE0" stroke-width="1.4"/>
<path d="M1.5 2L9 7L16.5 2" stroke="#C2CFE0" stroke-width="1.4"/>
</g>
</g>
<defs>
<filter id="filter0_d_0_1" x="-37" y="-272" width="292" height="886" filterUnits="userSpaceOnUse" color-interpolation-filters="sRGB">
<feFlood flood-opacity="0" result="BackgroundImageFix"/>
<feColorMatrix in="SourceAlpha" type="matrix" values="0 0 0 0 0 0 0 0 0 0 0 0 0 0 0 0 0 0 127 0" result="hardAlpha"/>
<feOffset dx="6"/>
<feGaussianBlur stdDeviation="9"/>
<feColorMatrix type="matrix" values="0 0 0 0 0 0 0 0 0 0 0 0 0 0 0 0 0 0 0.06 0"/>
<feBlend mode="normal" in2="BackgroundImageFix" result="effect1_dropShadow_0_1"/>
<feBlend mode="normal" in="SourceGraphic" in2="effect1_dropShadow_0_1" result="shape"/>
</filter>
<clipPath id="clip0_0_1">
<rect width="1440" height="850" fill="white" transform="translate(-25 -254)"/>
</clipPath>
<clipPath id="clip1_0_1">
<rect width="20" height="20" fill="white" transform="translate(-1 -3)"/>
</clipPath>
</defs>
</svg>
